<?xml version="1.0" encoding="utf-8"?>
<!-- Generator: Adobe Illustrator 18.1.0, SVG Export Plug-In . SVG Version: 6.00 Build 0)  -->
<svg version="1.1" id="Layer_1" xmlns="http://www.w3.org/2000/svg" xmlns:xlink="http://www.w3.org/1999/xlink" x="0px" y="0px"
	 viewBox="0 0 612 792" enable-background="new 0 0 612 792" xml:space="preserve">
<g id="Logo">
	<path fill="#29ABE2" d="M387.8,652.8c-5.3-9.4-12.7-15.3-20.8-18.7c-7.8-3.3-25.9-6.2-44,3.3c-1.6,0.9-5.1,3.1-6.8,4.4l0,0
		c0,0-0.4,0.3-1.1,1l0,0c-0.5,0.4-1.1,1-1.9,1.7c-0.1,0.1-0.1,0.1-0.2,0.2l-0.1,0.1c-7.4,7.3-24.9,32.1-3.8,52.5
		c6.5,6.3,11.7,6.6,15.5,7.2c12.2,1.9,21.2-5.1,22.3-12c0.9-5.2,2.2-15.7-13.7-14.7c-24.1,1.5-21.8-18.2-10.8-25
		c6.5-4,15.5-3.6,15.5-3.6s25.4-1.1,29.4,23c3.6,20.8-3.8,30.6-10.5,37.7c-3.5,3.7-13.3,12.8-32.3,11.6c-18.9-1.2-28-10.3-30.8-13
		c-9.5-9.4-13.7-21-13.7-32.5c0-1.2,0.1-1.4,0.2-2.6c0.2-2.8,0.3-14.5,11.2-31.9c10.9-17.4,33.2-29,33.2-29h-0.1
		c-19.3,0-35.5,5.9-48.7,18.3c-13.1,12.3-19.6,27.8-19.6,46.8c0,13.3,3.9,24.4,9.6,34.8c6.1,11,58.9,68,58.9,68s0.1-0.2,0.2-0.3
		c4-4.6,54.6-61.8,57-65.3c7.4-10.6,11.3-23,11.3-37.3C393.5,670.5,393.3,662.2,387.8,652.8z"/>
	<path fill="#29ABE2" d="M9.3,716.5c-10.8-8.3,2.4-25.3,12.4-15.5c4,4,2.3,2.3,4.2,3.8c1.9,1.5,5.5,3.6,10.9,6.3
		c5.4,2.6,10.8,4,16.2,4c4.3,0,7.7-0.8,10.3-2.3s3.9-3.9,3.9-7c0-2.3-1.9-4.6-5.7-6.6s-8.4-4-13.8-5.9s-10.9-4-16.4-6.5
		c-5.5-2.4-10.1-5.8-13.9-10.1c-3.8-4.3-5.7-9.3-5.7-15c0-9.1,3.9-16,11.6-20.8c7.7-4.8,17.5-7.1,29.2-7.1c4,0,9.8,0.3,13.7,1
		c3.9,0.6,7.8,1.6,11.7,3.1s7.1,3.6,9.6,6.3c2.5,2.7,3.7,5.9,3.7,9.5v8.2c1,10.2-23.1,6.4-23.1,1.7c0-4.7,0-4.7,0-4.7
		c0-2.1-1.4-3.8-4.1-4.9c-2.7-1.2-7.6-1.8-10.9-1.8c-4.8,0-8.6,0.7-11.5,2.3c-2.8,1.5-4.2,3.6-4.2,6.4c0,2.7,1.9,5.2,5.7,7.2
		c3.9,2,8.5,4,14,5.7c5.5,1.8,11,3.7,16.4,6c5.4,2.3,10.1,5.5,13.9,9.7c3.9,4.2,5.7,9.3,5.7,15.1c0,8.9-3.8,15.9-11.5,21.3
		c-7.6,5.3-17.3,7.9-28.9,7.9c-8.5,0-16.4-1.5-23.7-4.3c-7.3-2.8-12.4-5.7-15.4-8.4L9.3,716.5z"/>
	<path fill="#29ABE2" d="M413.7,719.3c-10-9.4-15-21.3-15-35.8s5-26.4,15-35.8s22.3-14.2,37.1-14.2s27.1,4.7,37.2,14.1
		c10.1,9.4,15.1,21.3,15.1,35.8s-5,26.4-15,35.8c-10,9.4-22.5,14.1-37.3,14.1C436,733.4,423.7,728.7,413.7,719.3z M422.5,683.5
		c0,8.7,2.7,15.8,8.2,21.4c5.5,5.6,12.1,8.3,20,8.3c8,0,14.7-2.7,20.2-8.3s8.2-12.7,8.2-21.4c0-8.6-2.7-15.7-8.3-21.3
		c-5.6-5.6-12.3-8.4-20.1-8.4s-14.5,2.8-20,8.4C425.2,667.8,422.5,674.8,422.5,683.5z"/>
	<path fill="#29ABE2" d="M507.7,765.2c0-16.1,0-105.1,0-105.1c0-2.7-2.8-24.3,9.5-24.3c8,0,12,4.8,12,10.8v2h0.4
		c0.2-0.4,0.6-0.9,1.1-1.6c0.4-0.6,1.5-1.9,3.2-3.6c1.8-1.8,3.6-3.2,5.7-4.6c2-1.3,4.9-2.5,8.6-3.6c3.6-1.1,7.6-1.7,11.7-1.7
		c12.9,0,24.8,4.6,32.6,13.8c7.8,9.2,11.6,21.3,11.6,36.1c0,15-4.1,27-12.4,36.2c-8.2,9.1-20.4,13.7-33.1,13.7
		c-5.6,0-10.7-1.1-15.3-3.2c-4.5-2.1-7.7-4.2-9.5-6.1l-2.6-3.2h-0.4c0.2,2.3,0.4,5,0.4,8.2v36.1
		C531.8,777.6,507.7,781.3,507.7,765.2z M530.8,684c0,8,2,14.9,6.1,20.7s9.9,8.7,17.4,8.7c6.9,0,14.3-2.7,18.9-7.9
		c4.6-5.3,7-12.5,7-21.6c0-9-2.2-16.2-6.5-21.7s-11.8-8.2-18.9-8.2c-6.7,0-12.4,2.5-17.1,7.6C533,666.5,530.8,674,530.8,684z"/>
	<path fill="#29ABE2" d="M227.4,649.8v45c0,6.1-0.2,9-2.3,12.1c-2.1,3.2-7,6.4-12.3,6.4c-7.8,0-13.9-4.7-18.5-10.6
		c-4.6-6-5.1-14.9-5.1-23.4c0,0,0-11.6-0.1-25.3c0.2-11-5.8-16.3-11.6-15.8c-5.7-0.5-11.6,4.8-11.6,15.8c0,13.7-0.1,25.3-0.1,25.3
		c0,8.6-0.6,17.5-5.2,23.4c-4.6,6-10.8,10.6-18.6,10.6c-5.3,0-10.7-3.2-12.8-6.4c-2.1-3.2-3.1-6.1-3.1-12.1v-45
		c0-11-6.1-13.3-11.9-13.3c-6-0.1-12.4,2.3-12.4,14.1v42c0,23.1,16.3,41.3,37.3,41.3c8.3,0,20.3-2.1,28.5-10.4c4-4,8.6-9.5,9.2-16.8
		c0.1,0.2,0.3,0.6,0.4,0.8c0.1-0.2,0.2-0.5,0.3-0.8c0.6,6.9,4.6,12,8.1,15.9c8,9.1,19.5,11.3,28.8,11.3c20.9,0,36.1-18.3,36.1-41.3
		v-42c0-12-6.2-14.5-12.4-14.1C232.8,636.8,227.4,639,227.4,649.8z"/>
</g>
</svg>
