<?xml version="1.0" encoding="utf-8"?>
<!-- Generator: Adobe Illustrator 18.1.1, SVG Export Plug-In . SVG Version: 6.00 Build 0)  -->
<svg version="1.1" id="Layer_1" xmlns="http://www.w3.org/2000/svg" xmlns:xlink="http://www.w3.org/1999/xlink" x="0px" y="0px"
	 viewBox="26.1 298.9 566.7 159.3" enable-background="new 26.1 298.9 566.7 159.3" xml:space="preserve">
<g id="Logo">
	<path fill="#F78E26" d="M388.1,337.5c-5-8.9-12-14.5-19.7-17.7c-7.4-3.1-24.5-5.9-41.6,3.1c-1.5,0.8-4.8,2.9-6.4,4.2l0,0
		c0,0-0.4,0.3-1.1,0.9l0,0c-0.5,0.4-1.1,0.9-1.8,1.6c-0.1,0.1-0.1,0.1-0.2,0.2l-0.1,0.1c-7,6.9-23.6,30.4-3.6,49.6
		c6.2,6,11.1,6.3,14.7,6.8c11.6,1.8,20-4.8,21.1-11.3c0.8-4.9,2.1-14.8-12.9-13.9c-22.8,1.4-20.7-17.2-10.2-23.6
		c6.1-3.8,14.7-3.4,14.7-3.4s24-1.1,27.8,21.7c3.4,19.7-3.6,28.9-9.9,35.7c-3.3,3.5-12.5,12.1-30.5,10.9
		c-17.9-1.1-26.5-9.7-29.1-12.3c-9-8.9-13-19.9-13-30.8c0-1.1,0.1-1.3,0.2-2.4c0.2-2.7,0.3-14,10.6-30.4
		c10.3-16.4,31.4-27.7,31.4-27.7h-0.1c-18.3,0-33.6,5.8-46.1,17.5s-18.7,26.5-18.7,44.4c0,12.5,3.7,23.2,9.1,33
		c5.8,10.4,55.8,64.3,55.8,64.3s0.1-0.2,0.2-0.3c3.8-4.4,51.6-58.5,53.9-61.8c7-10,10.7-21.7,10.7-35.3
		C393.4,354.2,393.2,346.4,388.1,337.5z"/>
	<path fill="#FFFFFF" d="M29.9,397.8c-10.3-7.9,2.3-23.9,11.7-14.7c3.8,3.7,2.2,2.1,4,3.6c1.8,1.5,5.2,3.4,10.3,6
		c5.1,2.4,10.3,3.7,15.3,3.7c4.1,0,7.3-0.8,9.8-2.2c2.4-1.5,3.7-3.7,3.7-6.7c0-2.2-1.8-4.4-5.4-6.3s-8-3.8-13.1-5.6
		c-5.1-1.8-10.3-3.8-15.5-6.1s-9.6-5.5-13.2-9.6s-5.4-8.8-5.4-14.2c0-8.6,3.7-15.1,11-19.7s16.5-6.7,27.6-6.7c3.7,0,9.3,0.3,13,0.9
		c3.7,0.6,7.4,1.5,11.1,2.9c3.7,1.4,6.7,3.4,9.1,6c2.4,2.6,3.5,5.6,3.5,9v7.8c0.9,9.6-21.9,6-21.9,1.6c0-4.4,0-4.4,0-4.4
		c0-2-1.3-3.6-3.9-4.7c-2.6-1.1-7.2-1.7-10.3-1.7c-4.6,0-8.2,0.7-10.9,2.1c-2.7,1.5-4,3.4-4,6c0,2.6,1.8,4.9,5.4,6.8
		c3.7,1.9,8,3.7,13.2,5.4c5.2,1.7,10.4,3.5,15.5,5.7c5.1,2.1,9.6,5.2,13.2,9.2c3.7,4,5.4,8.8,5.4,14.3c0,8.4-3.6,15.1-10.9,20.1
		c-7.2,5-16.4,7.5-27.4,7.5c-8,0-15.5-1.4-22.4-4.1c-6.9-2.7-11.8-5.4-14.6-8L29.9,397.8z"/>
	<path fill="#FFFFFF" d="M412.5,400.4c-9.5-8.9-14.2-20.2-14.2-33.9c0-13.7,4.7-25,14.2-33.9c9.5-8.9,21.2-13.4,35.1-13.4
		c13.9,0,25.6,4.4,35.2,13.4c9.6,8.9,14.3,20.2,14.3,33.9c0,13.7-4.7,25-14.2,33.9c-9.5,8.9-21.3,13.4-35.3,13.4
		C433.7,413.7,422,409.2,412.5,400.4z M420.9,366.5c0,8.3,2.6,15,7.8,20.3c5.2,5.3,11.5,7.9,19,7.9c7.6,0,13.9-2.6,19.1-7.9
		s7.8-12,7.8-20.3c0-8.1-2.6-14.8-7.9-20.2c-5.3-5.3-11.6-8-19-8s-13.8,2.7-19,8C423.5,351.6,420.9,358.3,420.9,366.5z"/>
	<path fill="#FFFFFF" d="M501.6,443.8c0-15.2,0-99.4,0-99.4c0-2.6-2.7-23,9-23c7.6,0,11.3,4.5,11.3,10.3v1.9h0.4
		c0.2-0.4,0.5-0.8,1-1.5c0.4-0.6,1.5-1.8,3.1-3.4c1.7-1.7,3.4-3.1,5.4-4.4c1.9-1.2,4.7-2.4,8.1-3.4s7.2-1.6,11.1-1.6
		c12.2,0,23.5,4.4,30.8,13.1c7.3,8.7,10.9,20.1,10.9,34.2c0,14.2-3.9,25.6-11.7,34.3c-7.8,8.6-19.3,13-31.4,13c-5.3,0-10.1-1-14.5-3
		c-4.3-2-7.3-4-9-5.8l-2.4-3h-0.4c0.2,2.1,0.4,4.7,0.4,7.8v34.1C524.4,455.5,501.6,459,501.6,443.8z M523.3,367
		c0,7.6,1.9,14.1,5.8,19.6c3.9,5.5,9.4,8.3,16.4,8.3c6.5,0,13.5-2.5,17.9-7.5c4.4-5,6.6-11.9,6.6-20.4c0-8.5-2.1-15.3-6.2-20.5
		c-4.1-5.2-11.2-7.8-17.9-7.8c-6.3,0-11.7,2.4-16.1,7.2C525.6,350.5,523.3,357.5,523.3,367z"/>
	<path fill="#FFFFFF" d="M236.4,334.6v42.6c0,5.7-0.3,8.5-2.3,11.5s-6.7,6-11.6,6c-7.4,0-13.2-4.4-17.5-10
		c-4.4-5.7-4.8-14.1-4.8-22.2c0,0,0-11-0.1-23.9c0.2-10.4-5.5-15.5-10.9-14.9c-5.4-0.5-11,4.5-10.9,14.9c0,12.9-0.1,23.9-0.1,23.9
		c0,8.1-0.5,16.6-4.9,22.2c-4.4,5.7-10.2,10-17.6,10c-5,0-10.1-3.1-12-6c-2-3-2.8-5.7-2.8-11.5v-42.6c0-10.4-5.7-12.5-11.2-12.5
		c-5.7-0.1-11.7,2.2-11.7,13.4v39.8c0,21.9,15.4,39.1,35.2,39.1c7.9,0,19.1-2,27-9.9c3.7-3.8,8.2-9,8.7-15.9
		c0.1,0.2,0.2,0.5,0.4,0.8c0.1-0.2,0.2-0.5,0.3-0.8c0.5,6.5,4.4,11.4,7.6,15.1c7.6,8.6,18.5,10.7,27.2,10.7
		c19.8,0,34.3-17.3,34.3-39.1v-39.8c0-11.4-5.9-13.7-11.7-13.4C241.5,322.3,236.4,324.4,236.4,334.6z"/>
</g>
</svg>
